<?xml version="1.0" encoding="UTF-8"?>
<svg width="144px" height="24px" viewBox="0 0 144 24" version="1.1" xmlns="http://www.w3.org/2000/svg" xmlns:xlink="http://www.w3.org/1999/xlink">
    <title>a</title>
    <g id="a" stroke="none" stroke-width="1" fill="none" fill-rule="evenodd">
        <ellipse id="Oval" stroke="#414141" fill="#FFFFFF" cx="60" cy="14.7272727" rx="9.5" ry="7.22727273"></ellipse>
        <ellipse id="Oval-Copy-4" stroke="#414141" fill="#FFFFFF" cx="84" cy="14.7272727" rx="9.5" ry="7.22727273"></ellipse>
        <ellipse id="Oval-Copy-2" stroke="#414141" fill="#FFFFFF" cx="60" cy="12.7272727" rx="9.5" ry="7.22727273"></ellipse>
        <ellipse id="Oval-Copy-5" stroke="#414141" fill="#FFFFFF" cx="84" cy="12.7272727" rx="9.5" ry="7.22727273"></ellipse>
        <path d="M12,1.5 C14.9166002,1.5 17.5600839,2.40749677 19.4724508,3.88523486 C21.3320251,5.32217857 22.5,7.30198516 22.5,9.5 C22.5,11.3015648 21.7144999,12.958295 20.4064658,14.2881163 C20.0354523,14.6653096 19.4532834,16.1448629 19.4532834,18.1161186 C19.4532834,19.0973951 19.5921183,20.1959239 19.9626608,21.3155427 C19.0611034,20.9078547 18.2567047,19.8994725 17.5288274,19.0571685 C16.5925464,17.9736986 15.746591,17.16294 15.0771595,17.16294 C14.5565678,17.16294 14.0350408,17.2467318 13.505463,17.3341885 C13.0139382,17.415361 12.5147045,17.5 12,17.5 C9.08339977,17.5 6.4399161,16.5925032 4.52754916,15.1147651 C2.66797495,13.6778214 1.5,11.6980148 1.5,9.5 C1.5,7.30198516 2.66797495,5.32217857 4.52754916,3.88523486 C6.4399161,2.40749677 9.08339977,1.5 12,1.5 Z" id="Oval" stroke="#414141" fill="#FFFFFF"></path>
        <path d="M36,1.5 C38.9166002,1.5 41.5600839,2.40749677 43.4724508,3.88523486 C45.3320251,5.32217857 46.5,7.30198516 46.5,9.5 C46.5,11.3015648 45.7144999,12.958295 44.4064658,14.2881163 C44.0354523,14.6653096 43.4532834,16.1448629 43.4532834,18.1161186 C43.4532834,19.0973951 43.5921183,20.1959239 43.9626608,21.3155427 C43.0611034,20.9078547 42.2567047,19.8994725 41.5288274,19.0571685 C40.5925464,17.9736986 39.746591,17.16294 39.0771595,17.16294 C38.5565678,17.16294 38.0350408,17.2467318 37.505463,17.3341885 C37.0139382,17.415361 36.5147045,17.5 36,17.5 C33.0833998,17.5 30.4399161,16.5925032 28.5275492,15.1147651 C26.6679749,13.6778214 25.5,11.6980148 25.5,9.5 C25.5,7.30198516 26.6679749,5.32217857 28.5275492,3.88523486 C30.4399161,2.40749677 33.0833998,1.5 36,1.5 Z" id="Oval-Copy" stroke="#414141" fill="#FFFFFF"></path>
        <path d="M60,1.5 C62.9166002,1.5 65.5600839,2.40749677 67.4724508,3.88523486 C69.3320251,5.32217857 70.5,7.30198516 70.5,9.5 C70.5,11.3015648 69.7144999,12.958295 68.4064658,14.2881163 C68.0354523,14.6653096 67.4532834,16.1448629 67.4532834,18.1161186 C67.4532834,19.0973951 67.5921183,20.1959239 67.9626608,21.3155427 C67.0611034,20.9078547 66.2567047,19.8994725 65.5288274,19.0571685 C64.5925464,17.9736986 63.746591,17.16294 63.0771595,17.16294 C62.5565678,17.16294 62.0350408,17.2467318 61.505463,17.3341885 C61.0139382,17.415361 60.5147045,17.5 60,17.5 C57.0833998,17.5 54.4399161,16.5925032 52.5275492,15.1147651 C50.6679749,13.6778214 49.5,11.6980148 49.5,9.5 C49.5,7.30198516 50.6679749,5.32217857 52.5275492,3.88523486 C54.4399161,2.40749677 57.0833998,1.5 60,1.5 Z" id="Oval-Copy-3" stroke="#414141" fill="#FFFFFF"></path>
        <path d="M84,1.5 C86.9166002,1.5 89.5600839,2.40749677 91.4724508,3.88523486 C93.3320251,5.32217857 94.5,7.30198516 94.5,9.5 C94.5,11.3015648 93.7144999,12.958295 92.4064658,14.2881163 C92.0354523,14.6653096 91.4532834,16.1448629 91.4532834,18.1161186 C91.4532834,19.0973951 91.5921183,20.1959239 91.9626608,21.3155427 C91.0611034,20.9078547 90.2567047,19.8994725 89.5288274,19.0571685 C88.5925464,17.9736986 87.746591,17.16294 87.0771595,17.16294 C86.5565678,17.16294 86.0350408,17.2467318 85.505463,17.3341885 C85.0139382,17.415361 84.5147045,17.5 84,17.5 C81.0833998,17.5 78.4399161,16.5925032 76.5275492,15.1147651 C74.6679749,13.6778214 73.5,11.6980148 73.5,9.5 C73.5,7.30198516 74.6679749,5.32217857 76.5275492,3.88523486 C78.4399161,2.40749677 81.0833998,1.5 84,1.5 Z" id="Oval-Copy-6" stroke="#414141" fill="#FFFFFF"></path>
        <path d="M132,1.5 C134.9166,1.5 137.560084,2.40749677 139.472451,3.88523486 C141.332025,5.32217857 142.5,7.30198516 142.5,9.5 C142.5,11.3015648 141.7145,12.958295 140.406466,14.2881163 C140.035452,14.6653096 139.453283,16.1448629 139.453283,18.1161186 C139.453283,19.0973951 139.592118,20.1959239 139.962661,21.3155427 C139.061103,20.9078547 138.256705,19.8994725 137.528827,19.0571685 C136.592546,17.9736986 135.746591,17.16294 135.07716,17.16294 C134.556568,17.16294 134.035041,17.2467318 133.505463,17.3341885 C133.013938,17.415361 132.514705,17.5 132,17.5 C129.0834,17.5 126.439916,16.5925032 124.527549,15.1147651 C122.667975,13.6778214 121.5,11.6980148 121.5,9.5 C121.5,7.30198516 122.667975,5.32217857 124.527549,3.88523486 C126.439916,2.40749677 129.0834,1.5 132,1.5 L132,1.5 Z" id="Oval-Copy-8" stroke="#CF0000" fill="#CF0000"></path>
        <path d="M108,1.5 C110.9166,1.5 113.560084,2.40749677 115.472451,3.88523486 C117.332025,5.32217857 118.5,7.30198516 118.5,9.5 C118.5,11.3015648 117.7145,12.958295 116.406466,14.2881163 C116.035452,14.6653096 115.453283,16.1448629 115.453283,18.1161186 C115.453283,19.0973951 115.592118,20.1959239 115.962661,21.3155427 C115.061103,20.9078547 114.256705,19.8994725 113.528827,19.0571685 C112.592546,17.9736986 111.746591,17.16294 111.07716,17.16294 C110.556568,17.16294 110.035041,17.2467318 109.505463,17.3341885 C109.013938,17.415361 108.514705,17.5 108,17.5 C105.0834,17.5 102.439916,16.5925032 100.527549,15.1147651 C98.6679749,13.6778214 97.5,11.6980148 97.5,9.5 C97.5,7.30198516 98.6679749,5.32217857 100.527549,3.88523486 C102.439916,2.40749677 105.0834,1.5 108,1.5 Z" id="Oval-Copy-7" stroke="#414141" fill="#414141"></path>
        <g id="Group" transform="translate(109.000000, 10.593750) rotate(-45.000000) translate(-109.000000, -10.593750) translate(104.700000, 3.207107)" fill="#FFFFFF">
            <polygon id="Rectangle" points="3.3 6.58578644 5.3 6.58578644 5.3 12.5857864 4.3 14.7732864 3.3 12.5857864"></polygon>
            <path d="M6.45835921,0.5 L6.20881679,2.07876817 L6.10002544,5.50446521 C6.09837068,5.78862208 6.17746067,6.06733519 6.32800254,6.30820218 L6.32800254,6.30820218 L7.21975151,7.73500053 L1.80424764,8.5 L2.27199746,6.30820218 C2.42099583,6.06980478 2.5,5.79433335 2.5,5.51320377 L2.5,5.51320377 L2.5,2.53581531 L1.85334137,0.988072404 L6.45835921,0.5 Z" id="Rectangle" stroke="#FFFFFF"></path>
        </g>
        <path d="M41.5,-0.129775731 L43.4484422,3.81819938 L47.8052914,4.45128663 L44.6526457,7.52435668 L45.3968844,11.8636012 L41.5,9.81488787 L37.6031156,11.8636012 L38.3473543,7.52435668 L35.1947086,4.45128663 L39.5515578,3.81819938 L41.5,-0.129775731 Z" id="Star" stroke="#FFFFFF" fill="#FFC100"></path>
        <path d="M89.5,-0.129775731 L91.4484422,3.81819938 L95.8052914,4.45128663 L92.6526457,7.52435668 L93.3968844,11.8636012 L89.5,9.81488787 L85.6031156,11.8636012 L86.3473543,7.52435668 L83.1947086,4.45128663 L87.5515578,3.81819938 L89.5,-0.129775731 Z" id="Star-Copy-2" stroke="#FFFFFF" fill="#FFC100"></path>
        <path d="M128,8.18743896 C129.064762,8.18743896 129.870191,8.513993 130.438846,8.98491937 C131.097071,9.53002165 131.440214,10.262235 131.492834,10.8450172 L131.5,11 L131.5,14.5 L129.642,14.499 L129.642857,11.3571429 L129.636998,11.2462569 C129.60547,10.9437565 129.444476,10.5927153 129.100334,10.3346083 C128.846836,10.1444852 128.488169,10 128,10 C127.533071,10 127.183248,10.1392085 126.929074,10.3298389 C126.56622,10.6019797 126.389238,10.9898195 126.357143,11.3307154 L126.357143,11.3307154 L126.357,14.499 L124.5,14.5 L124.5,11 C124.5,10.446872 124.861188,9.60346645 125.604495,8.9879036 C126.169514,8.5199883 126.96058,8.18743896 128,8.18743896 Z" id="Combined-Shape" stroke="#414141" fill="#FFFFFF"></path>
        <path d="M132,13.5 L132.5,20 L124,20.5 L123.5,14 L132,13.5 Z" id="Rectangle" stroke="#414141" fill="#FFFFFF"></path>
    </g>
</svg>